Coordinates
version=1
nRows=16
nColumns=40
inDegrees=yes

Units are S.I. units (second, meters, Newtons, ...)
If the header above contains a line with 'inDegrees', this indicates whether rotational values are in degrees (yes) or radians (no).

endheader
time	pelvis_tilt	pelvis_list	pelvis_rotation	pelvis_tx	pelvis_ty	pelvis_tz	hip_flexion_r	hip_adduction_r	hip_rotation_r	knee_angle_r	knee_angle_r_beta	ankle_angle_r	subtalar_angle_r	mtp_angle_r	hip_flexion_l	hip_adduction_l	hip_rotation_l	knee_angle_l	knee_angle_l_beta	ankle_angle_l	subtalar_angle_l	mtp_angle_l	lumbar_extension	lumbar_bending	lumbar_rotation	arm_flex_r	arm_add_r	arm_rot_r	elbow_flex_r	pro_sup_r	wrist_flex_r	wrist_dev_r	arm_flex_l	arm_add_l	arm_rot_l	elbow_flex_l	pro_sup_l	wrist_flex_l	wrist_dev_l
      0.81000000	     -7.71374260	      2.71583530	     -4.31165190	      0.20012115	      0.86426948	     -1.19017661	     25.58031617	    -29.39523561	    -24.15376810	     32.22624625	      0.56245410	      1.89690561	      4.23939430	      0.00000000	     20.74473641	    -27.01958462	    -35.44282241	     32.30279122	      0.56379006	      3.78903373	     13.61054883	      0.00000000	    -10.33743768	     -3.54121404	     -0.35483645	     44.93429008	    -14.99965092	     44.93429008	     75.00019242	     45.00000026	      0.00000000	      0.00000000	     44.93429008	    -14.99965092	     44.93429008	     75.00019242	     45.00000026	      0.00000000	      0.00000000
      0.81500000	     -7.90043370	      2.69488815	     -4.32816404	      0.19909507	      0.86238333	     -1.19007725	     26.30273313	    -29.50470955	    -23.79554796	     32.98966701	      0.57577831	      2.05586976	      3.88720611	      0.00000000	     21.42030052	    -27.30690272	    -35.08396149	     33.10646270	      0.57781678	      3.98974385	     13.07739947	      0.00000000	    -10.29228346	     -3.52494257	     -0.30315227	     44.93533578	    -14.99965862	     44.93533578	     75.00019188	     45.00000026	      0.00000000	      0.00000000	     44.93533578	    -14.99965862	     44.93533578	     75.00019188	     45.00000026	      0.00000000	      0.00000000
      0.82000000	     -8.10847698	      2.62485164	     -4.40069274	      0.19832652	      0.86029096	     -1.18986335	     27.04668398	    -29.58210998	    -23.49575575	     33.81279411	      0.59014459	      2.51489259	      3.98184055	      0.00000000	     22.04738682	    -27.77276732	    -35.00033247	     33.97360312	      0.59295123	      4.43340764	     13.39495674	      0.00000000	    -10.15541283	     -3.46589213	     -0.21680762	     44.93624273	    -14.99966506	     44.93624273	     75.00019145	     45.00000026	      0.00000000	      0.00000000	     44.93624273	    -14.99966506	     44.93624273	     75.00019145	     45.00000026	      0.00000000	      0.00000000
      0.82500000	     -8.42012367	      2.68479131	     -4.50268615	      0.19734437	      0.85789538	     -1.18953368	     28.05551227	    -29.75945522	    -23.01363357	     34.73977856	      0.60632352	      2.90386417	      3.81795208	      0.00000000	     22.79121650	    -28.09839775	    -34.89834391	     34.84043621	      0.60808032	      4.82074535	     13.39387243	      0.00000000	     -9.90003804	     -3.55045280	     -0.04208048	     44.93934724	    -14.99968698	     44.93934724	     75.00019006	     45.00000026	      0.00000000	      0.00000000	     44.93934724	    -14.99968698	     44.93934724	     75.00019006	     45.00000026	      0.00000000	      0.00000000
      0.83000000	     -8.38099112	      2.60680303	     -4.49857710	      0.19642202	      0.85659489	     -1.18950512	     28.37338728	    -29.80145359	    -22.80077961	     35.27517368	      0.61566792	      2.97451834	      3.59594529	      0.00000000	     23.14452387	    -28.34196150	    -34.52675866	     35.41357815	      0.61808354	      4.91000897	     12.93711390	      0.00000000	    -10.17201118	     -3.48832984	     -0.05225145	     44.93984857	    -14.99969042	     44.93984857	     75.00018985	     45.00000026	      0.00000000	      0.00000000	     44.93984857	    -14.99969042	     44.93984857	     75.00018985	     45.00000026	      0.00000000	      0.00000000
      0.83500000	     -8.68087554	      2.50813969	     -4.56548525	      0.19553627	      0.85415339	     -1.18928281	     29.24667900	    -29.84070005	    -22.50284380	     36.15670438	      0.63105354	      3.42591378	      3.59076975	      0.00000000	     23.92615772	    -28.87195206	    -34.41353518	     36.35718045	      0.63455251	      5.36820694	     13.19209647	      0.00000000	     -9.93718692	     -3.40797300	      0.02441762	     44.94071905	    -14.99969646	     44.94071905	     75.00018947	     45.00000026	      0.00000000	      0.00000000	     44.94071905	    -14.99969646	     44.94071905	     75.00018947	     45.00000026	      0.00000000	      0.00000000
      0.84000000	     -8.96383100	      2.45173751	     -4.61553700	      0.19458046	      0.85183757	     -1.18910760	     30.07768785	    -29.90361239	    -22.18546497	     36.93515927	      0.64464014	      3.67706647	      3.50289714	      0.00000000	     24.69725612	    -29.29860652	    -34.22179345	     37.21931414	      0.64959958	      5.62648136	     13.17810219	      0.00000000	     -9.75588649	     -3.34363295	      0.14965718	     44.94160193	    -14.99970264	     44.94160193	     75.00018907	     45.00000026	      0.00000000	      0.00000000	     44.94160193	    -14.99970264	     44.94160193	     75.00018907	     45.00000026	      0.00000000	      0.00000000
      0.84500000	     -8.99346687	      2.36561977	     -4.58773170	      0.19361748	      0.85025736	     -1.18911456	     30.49240776	    -29.94356945	    -21.97202310	     37.54570337	      0.65529614	      3.84707155	      3.20211243	      0.00000000	     25.15245712	    -29.53861230	    -33.80365724	     37.79629337	      0.65966976	      5.83954039	     12.72688244	      0.00000000	     -9.94762459	     -3.25687547	      0.12745522	     44.94225040	    -14.99970708	     44.94225040	     75.00018880	     45.00000026	      0.00000000	      0.00000000	     44.94225040	    -14.99970708	     44.94225040	     75.00018880	     45.00000026	      0.00000000	      0.00000000
      0.85000000	     -9.27896664	      2.29634928	     -4.69936900	      0.19272429	      0.84770819	     -1.18879633	     31.39599959	    -30.00140810	    -21.65600364	     38.44410491	      0.67097621	      4.30262638	      3.23873708	      0.00000000	     25.89442089	    -30.07359456	    -33.76108114	     38.73584650	      0.67606806	      6.28095688	     13.08782728	      0.00000000	     -9.72818659	     -3.23039734	      0.22692528	     44.94310835	    -14.99971303	     44.94310835	     75.00018843	     45.00000026	      0.00000000	      0.00000000	     44.94310835	    -14.99971303	     44.94310835	     75.00018843	     45.00000026	      0.00000000	      0.00000000
      0.85500000	     -9.49972827	      2.22048724	     -4.72525390	      0.19176946	      0.84551119	     -1.18865470	     32.11346632	    -30.03988930	    -21.36831823	     39.18091124	      0.68383591	      4.58156451	      3.11887792	      0.00000000	     26.57431439	    -30.44737168	    -33.49018038	     39.47614039	      0.68898863	      6.57005311	     13.03116514	      0.00000000	     -9.63577401	     -3.15142996	      0.30009617	     44.94397340	    -14.99971902	     44.94397340	     75.00018806	     45.00000026	      0.00000000	      0.00000000	     44.94397340	    -14.99971902	     44.94397340	     75.00018806	     45.00000026	      0.00000000	      0.00000000
      0.86000000	     -9.74611032	      2.16919773	     -4.78627215	      0.19080580	      0.84316765	     -1.18842482	     32.91754726	    -30.09317861	    -21.05643885	     39.97202228	      0.69764340	      4.87179044	      3.00754261	      0.00000000	     27.27639774	    -30.84345554	    -33.29074163	     40.25884775	      0.70264945	      6.86079116	     13.00729850	      0.00000000	     -9.50939709	     -3.10503788	      0.41933428	     44.94480685	    -14.99972481	     44.94480685	     75.00018770	     45.00000026	      0.00000000	      0.00000000	     44.94480685	    -14.99972481	     44.94480685	     75.00018770	     45.00000026	      0.00000000	      0.00000000
      0.86500000	     -9.81822585	      2.10897495	     -4.77602924	      0.18990068	      0.84133684	     -1.18837792	     33.40576756	    -30.16439198	    -20.83326538	     40.60815745	      0.70874605	      5.05588920	      2.80055589	      0.00000000	     27.77670069	    -31.10897911	    -32.97279997	     40.88053901	      0.71350001	      7.06548565	     12.74474196	      0.00000000	     -9.61648331	     -3.05107956	      0.43137974	     44.94536469	    -14.99972866	     44.94536469	     75.00018746	     45.00000026	      0.00000000	      0.00000000	     44.94536469	    -14.99972866	     44.94536469	     75.00018746	     45.00000026	      0.00000000	      0.00000000
      0.87000000	    -10.03733220	      2.04657082	     -4.83730805	      0.18898298	      0.83894706	     -1.18815481	     34.17802804	    -30.22371318	    -20.55385401	     41.42078545	      0.72292908	      5.41739324	      2.77026443	      0.00000000	     28.45232627	    -31.53326580	    -32.78954481	     41.68894175	      0.72760930	      7.42330335	     12.90142934	      0.00000000	     -9.52956062	     -3.02583723	      0.49747085	     44.94603258	    -14.99973326	     44.94603258	     75.00018718	     45.00000026	      0.00000000	      0.00000000	     44.94603258	    -14.99973326	     44.94603258	     75.00018718	     45.00000026	      0.00000000	      0.00000000
      0.87500000	    -10.44799856	      1.96595490	     -4.87245718	      0.18797725	      0.83610173	     -1.18800339	     35.16224244	    -30.24374534	    -20.21921123	     42.24342679	      0.73728688	      5.73657493	      2.70674192	      0.00000000	     29.41725072	    -31.99282934	    -32.50781229	     42.56568821	      0.74291141	      7.73619907	     12.95604857	      0.00000000	     -9.17556007	     -2.89994146	      0.61919383	     44.94674250	    -14.99973826	     44.94674250	     75.00018686	     45.00000026	      0.00000000	      0.00000000	     44.94674250	    -14.99973826	     44.94674250	     75.00018686	     45.00000026	      0.00000000	      0.00000000
      0.88000000	    -10.46063336	      1.92627903	     -4.84256213	      0.18710743	      0.83435965	     -1.18800281	     35.57155948	    -30.35093402	    -20.02775909	     42.85244835	      0.74791632	      5.87124439	      2.48315575	      0.00000000	     29.85500159	    -32.20227630	    -32.17286364	     43.15869410	      0.75326131	      7.89813855	     12.63868808	      0.00000000	     -9.36630880	     -2.86638211	      0.62507825	     44.94718741	    -14.99974136	     44.94718741	     75.00018666	     45.00000026	      0.00000000	      0.00000000	     44.94718741	    -14.99974136	     44.94718741	     75.00018666	     45.00000026	      0.00000000	      0.00000000
      0.88500000	    -10.58728780	      1.87312972	     -4.83311311	      0.18625328	      0.83215883	     -1.18792303	     36.17273002	    -30.45001204	    -19.80036408	     43.59474518	      0.76087184	      6.13767819	      2.39289222	      0.00000000	     30.44973315	    -32.52847181	    -31.90985915	     43.88014615	      0.76585303	      8.17974002	     12.61239456	      0.00000000	     -9.39638180	     -2.83668561	      0.63968207	     44.94776033	    -14.99974532	     44.94776033	     75.00018642	     45.00000026	      0.00000000	      0.00000000	     44.94776033	    -14.99974532	     44.94776033	     75.00018642	     45.00000026	      0.00000000	      0.00000000
